<svg width="150" height="148" viewBox="0 0 150 148" fill="none" xmlns="http://www.w3.org/2000/svg">
<path d="M70.3011 2.73877C62.691 3.17865 54.0266 5.28246 46.4548 8.53378C34.2632 13.7359 23.4135 22.6101 15.3625 33.9324C9.01756 42.864 5.37543 51.1453 3.32434 61.32C0.909032 73.2734 2.17419 85.399 7.13898 97.6584C9.20925 102.765 11.4904 107.011 14.845 111.926C17.7778 116.248 21.0749 120.303 23.7969 122.98C34.1674 133.193 45.0554 139.581 57.5537 142.794C64.3587 144.535 67.9625 144.975 75.3809 144.994C81.7451 144.994 84.3521 144.726 89.8536 143.559C100.282 141.322 109.004 137.305 117.898 130.688C127.559 123.459 137.355 110.912 142.089 99.6665C146.977 88 148.607 78.093 147.533 66.4839C146.575 56.1561 142.607 45.5989 135.955 35.6919C133.137 31.4843 128.518 26.3013 123.304 21.4817C111.917 10.9436 96.3902 4.05843 81.17 2.81528C78.9272 2.62401 72.9081 2.58577 70.3011 2.73877ZM80.1732 3.56116C93.2657 4.4218 106.435 9.39442 117.553 17.6757C123.975 22.4762 131.125 29.9925 135.649 36.7056C139.942 43.0935 143.412 50.7436 145.156 57.6671C146.537 63.1561 146.977 66.8855 146.977 72.7953C146.977 77.7105 146.671 80.9045 145.808 85.0356C145.482 86.5656 145.118 88.2678 145.003 88.8224L144.811 89.8169L143.508 87.8661C140.824 83.7542 135.476 80.1533 134.326 79.4892C133.176 78.8251 128.882 77.3471 125.182 77.0985C123.38 76.9646 123.208 76.9264 123.208 76.563C123.208 75.8745 121.904 72.3363 121.157 70.9784C118.396 66.0058 112.991 61.1861 106.837 58.2408C102.831 56.3283 100.397 55.6589 91.3871 53.9567C86.1156 52.9622 83.2403 50.7245 81.2275 46.0579C79.9432 43.1126 79.694 41.8694 79.694 38.6564V35.8258L81.055 33.7411C83.9112 29.3614 85.3872 25.0773 86.2881 18.479C86.614 16.2222 87.0549 10.0829 86.9207 9.94907C86.8249 9.85344 83.7003 11.0775 81.8026 11.9572C79.7515 12.8944 75.7835 15.2468 73.7899 16.6621C70.4353 19.0719 66.889 23.0309 65.3363 26.0718L64.9338 26.8942H63.5919C62.4035 26.8942 62.2309 26.856 62.0392 26.4543C61.7325 25.8997 58.953 21.979 56.9019 19.244C55.9818 18.02 54.0457 15.8206 52.4739 14.2714C50.2311 12.0337 49.4068 11.3452 48.2375 10.7141L46.7615 9.92993L46.6465 10.9053C46.3206 13.7359 46.3014 17.1594 46.6081 19.9899C46.934 22.9926 47.6241 26.8751 48.2567 29.2849C48.4484 30.0117 48.9276 31.8286 49.311 33.3012C49.6944 34.7739 50.3078 37.0498 50.6911 38.3504C51.4387 40.9514 51.4771 42.0989 50.8637 43.3995C50.672 43.782 49.7519 45.1973 48.7934 46.536C47.8541 47.8748 47.049 49.1562 46.9915 49.4049C46.7231 50.4376 47.0682 51.0688 48.9851 53.0387C50.7103 54.8365 50.902 54.9895 51.7838 55.1042C53.279 55.3337 54.6208 55.0851 56.4419 54.2819C58.9914 53.1535 61.445 52.2737 61.7325 52.3884C61.9051 52.4458 62.1543 53.2682 62.4226 54.6644C62.9402 57.3993 62.9402 59.8282 62.4418 65.7189C62.1159 69.544 62.0776 71.074 62.1734 76.0466C62.3076 82.5875 62.2693 82.97 61.1383 84.6339C60.1798 86.0301 58.723 87.2732 56.8444 88.3251C54.6975 89.4918 53.4707 89.9317 50.5953 90.4863C49.2535 90.7541 47.7774 91.1748 47.2982 91.4043C46.3206 91.8825 45.6113 92.8005 45.458 93.8333L45.343 94.5409L43.5794 94.9617C31.292 98.0218 22.781 101.464 14.5383 106.724C13.7715 107.221 13.1197 107.604 13.0814 107.565C13.0431 107.527 12.4872 106.552 11.8162 105.404C7.19649 97.2759 4.0911 87.7323 3.20932 78.858C2.7876 74.574 2.97929 68.3582 3.68855 63.5386C4.30196 59.484 6.29555 52.6179 8.0591 48.4868C11.8546 39.6126 17.9887 30.7767 25.0812 23.9298C31.0237 18.173 36.2568 14.4435 43.081 11.0392C54.8508 5.16769 67.0424 2.71964 80.1732 3.56116ZM84.6779 12.7414C84.6779 12.837 84.237 13.5829 83.6811 14.4053C83.0294 15.3807 81.4192 17.1402 79.023 19.5309C73.464 25.039 71.4129 27.5062 70.0519 30.2985C69.4193 31.5991 69.266 32.1537 69.1893 33.3204L69.0935 34.7356H69.9752C72.9273 34.7356 75.4576 35.5772 77.0295 37.0881C78.0838 38.0826 78.1988 38.5416 77.9688 40.7219C77.7387 42.9787 76.3969 47.0716 75.3618 48.7355L74.9209 49.424L69.9752 49.5196C64.167 49.6152 63.9178 49.6535 58.1863 51.7764C55.2534 52.8666 54.1991 53.1726 53.1064 53.2491C52.3013 53.2873 51.7071 53.2682 51.7071 53.1535C51.7071 53.0578 52.0905 52.6562 52.5697 52.2737C53.2598 51.6808 53.4323 51.4322 53.4323 50.9158C53.4323 49.7491 51.6879 48.6016 50.1352 48.7355C49.6368 48.7928 49.2151 48.7928 49.2151 48.7546C49.2151 48.7163 49.7327 47.894 50.3844 46.9568C51.017 46.0005 51.8988 44.4896 52.3397 43.5907L53.1064 41.9651L53.2406 38.8859C53.3556 36.017 53.4132 35.711 53.8924 34.7356C55.8093 30.9105 60.5057 28.233 64.8379 28.4625L65.9881 28.5199L66.9082 26.8177C69.6494 21.7686 74.4033 17.5801 81.5534 13.9463C84.3137 12.531 84.6779 12.3971 84.6779 12.7414ZM52.1672 16.2031C54.2374 18.4216 55.9051 20.5254 58.2054 23.815C59.4898 25.6319 60.5249 27.1428 60.4865 27.162C60.4482 27.2002 59.6814 27.5827 58.7613 28.0417C56.8061 28.998 55.1575 30.3368 53.8924 31.9625C53.4132 32.5936 52.9914 33.1291 52.9531 33.1674C52.7422 33.3777 49.0809 16.4708 48.8892 14.3862L48.7742 13.0283L49.9436 14.0419C50.5761 14.5965 51.5729 15.5719 52.1672 16.2031ZM48.5634 18.7659C49.2535 22.6101 51.2854 32.804 51.5154 33.5881C51.7454 34.3914 51.7646 34.9269 51.5538 34.9269C51.4771 34.9269 51.2279 34.2575 50.9978 33.4351C50.7678 32.6318 50.4036 31.3122 50.1927 30.528C48.8701 25.8232 47.4132 16.7386 47.7774 15.5146L47.95 14.9408L48.0075 15.5146C48.0458 15.8206 48.295 17.2932 48.5634 18.7659ZM84.7738 17.9435C83.7195 25.2685 81.7067 30.4898 78.3138 34.7739L77.7579 35.4815L76.972 34.9269C76.5502 34.6209 75.8985 34.3149 75.5534 34.2384C75.1892 34.181 74.8634 34.0663 74.825 33.9898C74.7675 33.9132 75.1701 33.2056 75.6876 32.4406C76.2244 31.6564 78.1988 27.927 80.0773 24.1784C83.2594 17.8096 84.8505 15.0556 85.023 15.5719C85.0613 15.7058 84.9463 16.7577 84.7738 17.9435ZM80.1924 20.8123C79.9432 21.2713 78.6397 23.7003 77.2978 26.2248C75.956 28.7494 74.4991 31.3313 74.0583 31.9625L73.2532 33.11H72.1222H70.972L71.0295 32.5553C71.1254 31.7138 72.2372 29.6674 73.5215 27.9461C75.0742 25.8806 80.3074 20.009 80.6141 20.009C80.6333 20.009 80.4607 20.3724 80.1924 20.8123ZM79.1956 45.465C79.3873 46.4595 80.7291 49.118 81.6684 50.3229C82.1476 50.954 83.0677 51.9294 83.7386 52.4841C86.0198 54.4157 88.0134 55.1425 93.4957 56.0605C95.6426 56.443 98.3647 56.9785 99.534 57.3037C102.064 57.9731 105.687 59.4075 107.892 60.6124C113.796 63.8063 118.933 69.2571 120.773 74.2297C121.54 76.3335 121.732 77.5384 121.617 79.6231C121.483 82.0137 121.003 83.4482 119.547 85.6093C116.154 90.6585 110.288 93.5464 101.988 94.254C98.9206 94.5027 95.8343 94.2923 90.4287 93.4699C83.6045 92.3989 80.269 92.0929 74.8634 91.9781C70.7803 91.8825 69.726 91.806 69.726 91.6147C69.726 91.1175 71.3746 89.377 72.3522 88.8224C73.8666 87.9809 75.8793 87.694 80.3649 87.6749C82.4735 87.6749 84.9271 87.7705 85.8281 87.8661C91.7705 88.612 92.9398 88.7077 95.796 88.6312C98.4222 88.5547 98.9589 88.4781 100.301 88.0191C104.652 86.5082 107.892 83.276 109.138 79.2023C109.387 78.3417 109.483 77.4428 109.483 75.6641C109.464 73.6177 109.387 73.063 108.965 71.7434C107.719 67.9565 104.652 64.8773 100.742 63.4621C99.5148 63.0222 99.0547 62.9457 97.042 62.9648C95.0484 62.9648 94.55 63.0413 93.3424 63.4621C91.2721 64.208 89.9494 65.0495 88.2242 66.7708C87.0166 67.9565 86.499 68.6642 85.8664 69.9265C84.6588 72.3745 84.4479 73.3308 84.3137 77.5001L84.1987 81.1531L83.5278 81.7077C81.8984 83.0465 81.1316 83.8498 80.6141 84.7869C80.1157 85.6667 79.9623 85.8006 79.4448 85.8006C77.7771 85.8197 74.1924 86.2214 72.6781 86.5656C70.627 87.0437 69.6302 87.4645 68.7292 88.2678C67.8475 89.0328 67.5408 89.7978 67.6558 90.8688C67.7133 91.347 67.7133 91.7295 67.6366 91.7295C67.5791 91.7295 65.3172 91.9016 62.6335 92.112C58.0137 92.4754 53.0106 93.0874 49.4452 93.7568C48.5634 93.9289 47.7966 94.0054 47.7391 93.948C47.6624 93.8907 47.7774 93.6803 47.95 93.4699C48.3333 93.0491 49.656 92.5519 52.2822 91.8251C54.2566 91.2896 57.362 89.8552 59.9498 88.2869C60.8508 87.7323 62.7102 86.7569 64.1095 86.0875C68.5951 83.9454 72.4481 80.9236 73.4065 78.8007C73.8282 77.8444 73.8282 77.0603 73.4448 71.3226C73.0615 65.7571 76.3777 61.0523 80.8633 60.7845C82.4352 60.6889 84.0262 61.1096 84.6779 61.7981C84.9271 62.0659 85.1955 62.2763 85.2913 62.2763C85.9623 62.2763 84.5054 60.6698 83.2786 60.0386C80.7483 58.7763 77.4128 59.5413 74.9975 61.9703C72.5631 64.3992 71.3554 68.5494 71.8538 72.6232C71.9688 73.5794 72.0263 74.4018 71.9688 74.4401C71.8922 74.5166 69.8986 72.2024 68.7292 70.6915C67.5983 69.1997 66.1223 66.6369 65.6047 65.2599C65.2021 64.1888 65.0488 63.2708 64.8188 60.2872C64.5887 57.3419 64.0903 54.1097 63.5536 51.9677C63.4386 51.4704 64.6654 51.3365 70.3395 51.2409L76.0518 51.1453L77.087 49.0032C77.662 47.8366 78.2946 46.4022 78.4863 45.7902C78.8697 44.6235 79.0039 44.547 79.1956 45.465ZM99.5148 64.8582C102.582 65.6615 105.342 67.9183 106.684 70.7106C107.604 72.6232 107.873 73.8089 107.873 75.9319C107.873 80.9427 104.269 85.2651 98.8631 86.6995C97.2337 87.1394 91.6363 87.1585 91.3679 86.7377C91.0996 86.317 91.1763 83.6777 91.483 82.4536C91.8855 80.8471 93.1123 78.4373 94.4158 76.6777C95.4701 75.2816 97.9621 72.7953 98.3072 72.7953C98.403 72.7953 98.4797 72.6997 98.4797 72.604C98.4797 72.2406 97.7513 72.4128 95.2018 73.3882C91.9814 74.5931 90.5437 75.3963 89.451 76.563C87.6683 78.4755 87.3616 79.2788 87.1891 82.5493L87.0741 84.9399L86.5948 83.5055C86.1348 82.1476 86.1156 81.8416 86.1156 77.8635C86.1156 73.7898 86.1348 73.6177 86.614 72.298C88.0134 68.5303 90.8695 65.8336 94.4733 64.8773C95.8535 64.514 98.1346 64.4948 99.5148 64.8582ZM65.0104 70.5002C66.0072 73.2352 67.7516 76.0466 69.8794 78.3608C70.4353 78.9537 70.8762 79.5274 70.8762 79.6039C70.8762 79.8526 69.2277 81.2105 67.6174 82.3006C66.2564 83.1995 64.1287 84.4618 63.9562 84.4618C63.8603 84.4618 63.8603 68.5877 63.9562 67.727C63.9945 67.2107 64.0328 67.268 64.2437 68.1095C64.3779 68.6259 64.7229 69.7161 65.0104 70.5002ZM68.4801 72.8909C69.3618 73.9428 70.512 75.2242 71.0487 75.7597C72.0072 76.6969 72.2947 77.3854 71.7963 77.6914C71.2787 78.0165 68.135 74.0002 66.8123 71.3609C66.1798 70.1177 65.9306 69.1806 66.4865 70.2133C66.7165 70.6341 67.6174 71.839 68.4801 72.8909ZM92.4798 77.0411C90.3903 79.9865 89.6619 81.9946 89.6619 84.7869V86.5847L89.1443 86.5274L88.6076 86.47L88.5501 84.4618C88.4351 80.8471 89.106 78.8581 91.0229 77.0794C91.6555 76.4865 93.1315 75.6258 93.2657 75.7597C93.304 75.798 92.959 76.3717 92.4798 77.0411ZM127.847 78.4373C132.466 79.2406 137.086 81.7269 140.172 85.0929C142.818 87.9426 144.735 92.1311 143.604 92.571C142.837 92.8579 142.377 92.6857 141.878 91.8634C140.882 90.2759 139.54 89.1667 137.067 87.9044C133.617 86.1448 131.163 85.6285 125.757 85.4755L121.693 85.3607L122.038 84.6722C122.671 83.429 123.227 81.3444 123.342 79.7187L123.457 78.1504H124.837C125.604 78.1504 126.965 78.2843 127.847 78.4373ZM85.0613 83.4099C85.0613 83.582 85.3297 84.2132 85.6364 84.8443C85.9623 85.4755 86.2115 86.0301 86.2115 86.0875C86.2115 86.2213 83.5278 86.2022 83.0102 86.0683L82.5885 85.9536L82.9527 85.2459C83.3744 84.4427 84.5438 83.123 84.8505 83.123C84.9655 83.123 85.0613 83.2569 85.0613 83.4099ZM131.029 86.8525C135.016 87.7323 139.942 90.2186 141.38 92.0546L141.859 92.6857H127.885H113.911L115.118 92.0355C117.035 91.0027 118.876 89.377 120.39 87.388C120.735 86.9481 121.214 86.5465 121.483 86.4891C122.575 86.2787 129.649 86.5465 131.029 86.8525ZM75.8602 93.642C81.9368 93.9289 83.2978 94.0819 93.304 95.5928C94.2625 95.7458 96.7161 95.8414 99.2848 95.8414C101.7 95.8414 103.655 95.8988 103.655 95.9562C103.655 96.2048 101.432 100.852 100.512 102.535C98.1921 106.762 95.0101 111.237 93.3807 112.519C92.3647 113.322 90.6204 114.355 87.5533 116C81.8217 119.079 79.924 120.915 78.6013 124.663C77.9304 126.538 77.7771 129.693 78.2563 131.51C78.8697 133.863 78.908 134.016 78.678 133.939C78.2179 133.786 75.8218 130.401 75.0934 128.89C73.0615 124.644 72.8506 119.787 74.5183 115.483C75.0551 114.106 76.6269 111.563 79.2914 107.833C81.1125 105.309 82.2243 102.019 81.6492 100.986C81.4192 100.585 81.5342 100.393 80.4416 103.071C79.8665 104.486 78.3905 106.762 77.0678 108.254L76.4544 108.942L45.2471 108.904L14.059 108.847L17.2219 107.011C25.6947 102.057 30.4294 100.145 41.3558 97.2759C52.6656 94.3114 64.2053 93.0874 75.8602 93.642ZM143.527 93.7185C143.527 93.7568 143.355 94.2158 143.124 94.7322C142.894 95.2294 142.569 96.1092 142.358 96.6638C142.166 97.2185 141.648 98.4808 141.208 99.4753L140.422 101.292H121.751C111.476 101.292 103.08 101.254 103.08 101.197C103.08 101.139 103.406 100.432 103.809 99.6092C104.211 98.8059 104.748 97.5819 104.997 96.8933C105.246 96.2048 105.457 95.6311 105.496 95.5928C105.515 95.5546 106.262 95.3633 107.144 95.1721C108.007 94.9808 109.464 94.56 110.365 94.2349L111.994 93.6803L127.77 93.6611C136.434 93.642 143.527 93.6803 143.527 93.7185ZM139.655 102.421C139.942 102.593 139.655 103.186 137.45 106.877L136.224 108.942H117.419H98.633L99.0739 108.216C99.4765 107.565 101.489 104.046 102.198 102.765L102.486 102.248H120.946C131.105 102.248 139.521 102.325 139.655 102.421ZM117.131 109.899C130.55 109.899 135.476 109.956 135.476 110.109C135.476 110.339 132.869 114.03 132.141 114.833L131.757 115.273L116.403 115.235C107.968 115.196 99.3423 115.139 97.2337 115.082L93.3999 114.967L94.8375 113.437C95.6235 112.595 96.6586 111.41 97.1378 110.798C97.8088 109.937 98.0963 109.707 98.3838 109.784C98.5947 109.841 107.029 109.899 117.131 109.899ZM75.8602 109.956C75.8602 109.994 75.3809 110.74 74.8059 111.639C74.2116 112.519 73.5023 113.705 73.234 114.259L72.7356 115.273L46.7423 115.254C32.4422 115.254 20.1356 115.196 19.388 115.139L18.0462 115.024L16.5127 112.901C15.6884 111.735 14.8833 110.587 14.7491 110.339L14.4999 109.899H45.1896C62.0584 109.899 75.8602 109.918 75.8602 109.956ZM72.4864 116.038C72.5439 116.095 72.4672 116.573 72.3139 117.109C72.0838 117.893 71.6621 120.915 71.643 121.909C71.643 122.12 67.3491 122.158 47.8733 122.12L24.1228 122.101L23.1068 121.011C22.2251 120.093 19.8097 117.262 18.9471 116.153C18.6979 115.828 19.8289 115.828 45.5347 115.866C60.2949 115.904 72.4289 115.981 72.4864 116.038ZM131.259 115.981C131.259 116.076 130.166 117.434 128.844 119.021C126.505 121.833 126.428 121.909 125.546 122.043C124.396 122.215 86.0198 122.082 86.0198 121.909C86.0198 121.833 87.0741 120.972 88.3584 119.997C89.6619 119.021 91.2721 117.683 91.9622 117.032L93.2082 115.847L112.243 115.828C122.69 115.828 131.259 115.904 131.259 115.981ZM89.9494 116.707C89.5277 117.071 88.3201 118.046 87.2658 118.849C84.6013 120.877 83.662 121.795 82.6268 123.363C81.0933 125.696 79.8857 128.795 79.8857 130.478C79.8857 130.898 79.8282 130.975 79.694 130.745C79.3681 130.248 79.4831 127.647 79.8857 126.079C80.7291 122.732 82.5502 120.666 86.7099 118.314C88.0709 117.549 89.4894 116.707 89.8536 116.459C90.7929 115.828 90.8312 115.923 89.9494 116.707ZM50.1736 123.095H71.7963L72.0072 124.51C72.1222 125.295 72.4097 126.576 72.6781 127.379L73.1381 128.833H52.3972C33.0939 128.833 31.6371 128.814 31.1962 128.508C30.7745 128.221 26.6915 124.683 25.503 123.592C25.2538 123.363 25.0621 123.114 25.0621 123.019C25.0621 122.923 25.8097 122.904 26.8256 122.98C27.7841 123.038 38.2887 123.095 50.1736 123.095ZM124.454 123.879C124.032 124.319 122.614 125.601 121.31 126.748L118.952 128.833H100.377C90.1603 128.833 81.8026 128.795 81.8026 128.737C81.8026 128.144 83.3361 125.065 84.3329 123.612L84.6971 123.095H104.959H125.201L124.454 123.879ZM74.0391 130.516C75.2084 132.428 76.4927 134.016 77.6045 134.953L78.8889 136.005L75.7835 136.12C74.0966 136.177 66.0072 136.254 57.8412 136.254L42.9852 136.292L42.0267 135.737C38.1546 133.557 36.4293 132.467 34.0907 130.707L32.8639 129.789L53.2598 129.827L73.6557 129.885L74.0391 130.516ZM117.265 130.114C116.997 130.286 116.748 130.497 116.69 130.554C116.441 130.879 111.38 134.092 109.636 135.029L107.643 136.12L94.4158 136.177L81.1892 136.234L81.2658 133.251C81.285 131.606 81.4 130.153 81.4767 130.019C81.5917 129.846 85.4447 129.789 99.6873 129.789C116.69 129.789 117.706 129.808 117.265 130.114ZM106.281 136.98C106.262 137.019 105.246 137.478 104.039 138.013C102.831 138.549 101.662 139.065 101.451 139.161C100.397 139.639 95.4126 141.303 93.2082 141.896C77.9496 146.103 61.675 144.764 46.6848 138.109C44.5954 137.191 44.4229 137.076 45.0171 137.019C45.7647 136.942 106.358 136.923 106.281 136.98Z" fill="url(#paint0_linear_164_981)" stroke="url(#paint1_linear_164_981)"/>
<path d="M67.4259 38.1208C63.9372 38.6372 62.9595 38.8476 62.0969 39.2301C61.2152 39.6318 61.0235 39.823 60.6209 40.7028C60.1033 41.8121 59.95 42.8831 60.3909 42.3476C60.5059 42.1946 61.426 41.7738 62.4228 41.4295C64.148 40.8175 67.1576 39.058 67.7901 38.3121C67.9243 38.14 68.0202 38.0061 67.9818 38.0061C67.9435 38.0252 67.6943 38.0635 67.4259 38.1208Z" fill="url(#paint2_linear_164_981)" stroke="url(#paint3_linear_164_981)" stroke-width="0.5"/>
<defs>
<linearGradient id="paint0_linear_164_981" x1="2.13623" y1="73.8191" x2="147.849" y2="73.8191" gradientUnits="userSpaceOnUse">
<stop stop-color="#FF7920"/>
<stop offset="1" stop-color="#EB3309"/>
</linearGradient>
<linearGradient id="paint1_linear_164_981" x1="2.13623" y1="73.8191" x2="147.849" y2="73.8191" gradientUnits="userSpaceOnUse">
<stop stop-color="#FF7920"/>
<stop offset="1" stop-color="#EB3309"/>
</linearGradient>
<linearGradient id="paint2_linear_164_981" x1="60.1323" y1="40.2479" x2="67.9904" y2="40.2479" gradientUnits="userSpaceOnUse">
<stop stop-color="#FF7920"/>
<stop offset="1" stop-color="#EB3309"/>
</linearGradient>
<linearGradient id="paint3_linear_164_981" x1="60.1323" y1="40.2479" x2="67.9904" y2="40.2479" gradientUnits="userSpaceOnUse">
<stop stop-color="#FF7920"/>
<stop offset="1" stop-color="#EB3309"/>
</linearGradient>
</defs>
</svg>
