<?xml version="1.0" standalone="no"?>
<!DOCTYPE svg PUBLIC "-//W3C//DTD SVG 20010904//EN"
 "http://www.w3.org/TR/2001/REC-SVG-20010904/DTD/svg10.dtd">
<svg version="1.0" xmlns="http://www.w3.org/2000/svg"
 width="60.000000pt" height="60.000000pt" viewBox="0 0 60.000000 60.000000"
 preserveAspectRatio="xMidYMid meet">

<g transform="translate(0.000000,60.000000) scale(0.100000,-0.100000)"
fill="#000000" stroke="none">
<path d="M169 590 c-6 -59 -3 -65 29 -68 31 -3 32 -2 32 37 0 39 -2 41 -30 41
-16 0 -30 -4 -31 -10z"/>
<path d="M370 560 l0 -40 75 0 75 0 0 -75 0 -75 40 0 40 0 0 115 0 115 -115 0
-115 0 0 -40z"/>
<path d="M280 380 l0 -50 -55 0 c-52 0 -55 -1 -55 -25 0 -24 3 -25 55 -25 l55
0 0 -50 c0 -43 3 -50 20 -50 17 0 20 7 20 50 l0 50 55 0 c52 0 55 1 55 25 0
24 -3 25 -55 25 l-55 0 0 50 c0 43 -3 50 -20 50 -17 0 -20 -7 -20 -50z"/>
<path d="M520 155 l0 -75 -75 0 -75 0 0 -40 0 -40 115 0 115 0 0 115 0 115
-40 0 -40 0 0 -75z"/>
<path d="M169 78 c-1 -2 -2 -20 -3 -41 -1 -35 0 -37 32 -37 31 0 32 2 32 40 0
38 -2 40 -30 40 -16 0 -30 -1 -31 -2z"/>
</g>
</svg>
