<svg id="visual" viewBox="0 0 960 540" width="960" height="540" xmlns="http://www.w3.org/2000/svg" xmlns:xlink="http://www.w3.org/1999/xlink" version="1.1"><path d="M0 109L17.8 95.5C35.7 82 71.3 55 106.8 50.5C142.3 46 177.7 64 213.2 63.2C248.7 62.3 284.3 42.7 320 46.3C355.7 50 391.3 77 426.8 80.5C462.3 84 497.7 64 533.2 59.5C568.7 55 604.3 66 640 67.8C675.7 69.7 711.3 62.3 746.8 57.8C782.3 53.3 817.7 51.7 853.2 55.3C888.7 59 924.3 68 942.2 72.5L960 77L960 0L942.2 0C924.3 0 888.7 0 853.2 0C817.7 0 782.3 0 746.8 0C711.3 0 675.7 0 640 0C604.3 0 568.7 0 533.2 0C497.7 0 462.3 0 426.8 0C391.3 0 355.7 0 320 0C284.3 0 248.7 0 213.2 0C177.7 0 142.3 0 106.8 0C71.3 0 35.7 0 17.8 0L0 0Z" fill="#eb3309"></path><path d="M0 206L17.8 207.8C35.7 209.7 71.3 213.3 106.8 202.5C142.3 191.7 177.7 166.3 213.2 148.3C248.7 130.3 284.3 119.7 320 135C355.7 150.3 391.3 191.7 426.8 200.7C462.3 209.7 497.7 186.3 533.2 193.5C568.7 200.7 604.3 238.3 640 239.2C675.7 240 711.3 204 746.8 177C782.3 150 817.7 132 853.2 125.8C888.7 119.7 924.3 125.3 942.2 128.2L960 131L960 75L942.2 70.5C924.3 66 888.7 57 853.2 53.3C817.7 49.7 782.3 51.3 746.8 55.8C711.3 60.3 675.7 67.7 640 65.8C604.3 64 568.7 53 533.2 57.5C497.7 62 462.3 82 426.8 78.5C391.3 75 355.7 48 320 44.3C284.3 40.7 248.7 60.3 213.2 61.2C177.7 62 142.3 44 106.8 48.5C71.3 53 35.7 80 17.8 93.5L0 107Z" fill="#ee420b"></path><path d="M0 352L17.8 350.2C35.7 348.3 71.3 344.7 106.8 339.3C142.3 334 177.7 327 213.2 319C248.7 311 284.3 302 320 307.3C355.7 312.7 391.3 332.3 426.8 332.3C462.3 332.3 497.7 312.7 533.2 310C568.7 307.3 604.3 321.7 640 327.8C675.7 334 711.3 332 746.8 329.3C782.3 326.7 817.7 323.3 853.2 319.8C888.7 316.3 924.3 312.7 942.2 310.8L960 309L960 129L942.2 126.2C924.3 123.3 888.7 117.7 853.2 123.8C817.7 130 782.3 148 746.8 175C711.3 202 675.7 238 640 237.2C604.3 236.3 568.7 198.7 533.2 191.5C497.7 184.3 462.3 207.7 426.8 198.7C391.3 189.7 355.7 148.3 320 133C284.3 117.7 248.7 128.3 213.2 146.3C177.7 164.3 142.3 189.7 106.8 200.5C71.3 211.3 35.7 207.7 17.8 205.8L0 204Z" fill="#f24e0e"></path><path d="M0 449L17.8 444.5C35.7 440 71.3 431 106.8 426.5C142.3 422 177.7 422 213.2 410.3C248.7 398.7 284.3 375.3 320 375.3C355.7 375.3 391.3 398.7 426.8 402.3C462.3 406 497.7 390 533.2 388.2C568.7 386.3 604.3 398.7 640 402.2C675.7 405.7 711.3 400.3 746.8 398.7C782.3 397 817.7 399 853.2 391.8C888.7 384.7 924.3 368.3 942.2 360.2L960 352L960 307L942.2 308.8C924.3 310.7 888.7 314.3 853.2 317.8C817.7 321.3 782.3 324.7 746.8 327.3C711.3 330 675.7 332 640 325.8C604.3 319.7 568.7 305.3 533.2 308C497.7 310.7 462.3 330.3 426.8 330.3C391.3 330.3 355.7 310.7 320 305.3C284.3 300 248.7 309 213.2 317C177.7 325 142.3 332 106.8 337.3C71.3 342.7 35.7 346.3 17.8 348.2L0 350Z" fill="#f55a12"></path><path d="M0 465L17.8 466C35.7 467 71.3 469 106.8 470C142.3 471 177.7 471 213.2 458.3C248.7 445.7 284.3 420.3 320 417.7C355.7 415 391.3 435 426.8 442.2C462.3 449.3 497.7 443.7 533.2 440C568.7 436.3 604.3 434.7 640 437.5C675.7 440.3 711.3 447.7 746.8 446.8C782.3 446 817.7 437 853.2 427C888.7 417 924.3 406 942.2 400.5L960 395L960 350L942.2 358.2C924.3 366.3 888.7 382.7 853.2 389.8C817.7 397 782.3 395 746.8 396.7C711.3 398.3 675.7 403.7 640 400.2C604.3 396.7 568.7 384.3 533.2 386.2C497.7 388 462.3 404 426.8 400.3C391.3 396.7 355.7 373.3 320 373.3C284.3 373.3 248.7 396.7 213.2 408.3C177.7 420 142.3 420 106.8 424.5C71.3 429 35.7 438 17.8 442.5L0 447Z" fill="#f86516"></path><path d="M0 498L17.8 496.2C35.7 494.3 71.3 490.7 106.8 492.5C142.3 494.3 177.7 501.7 213.2 498C248.7 494.3 284.3 479.7 320 473.3C355.7 467 391.3 469 426.8 475.3C462.3 481.7 497.7 492.3 533.2 493.2C568.7 494 604.3 485 640 488.7C675.7 492.3 711.3 508.7 746.8 513.2C782.3 517.7 817.7 510.3 853.2 499.5C888.7 488.7 924.3 474.3 942.2 467.2L960 460L960 393L942.2 398.5C924.3 404 888.7 415 853.2 425C817.7 435 782.3 444 746.8 444.8C711.3 445.7 675.7 438.3 640 435.5C604.3 432.7 568.7 434.3 533.2 438C497.7 441.7 462.3 447.3 426.8 440.2C391.3 433 355.7 413 320 415.7C284.3 418.3 248.7 443.7 213.2 456.3C177.7 469 142.3 469 106.8 468C71.3 467 35.7 465 17.8 464L0 463Z" fill="#fc6f1b"></path><path d="M0 541L17.8 541C35.7 541 71.3 541 106.8 541C142.3 541 177.7 541 213.2 541C248.7 541 284.3 541 320 541C355.7 541 391.3 541 426.8 541C462.3 541 497.7 541 533.2 541C568.7 541 604.3 541 640 541C675.7 541 711.3 541 746.8 541C782.3 541 817.7 541 853.2 541C888.7 541 924.3 541 942.2 541L960 541L960 458L942.2 465.2C924.3 472.3 888.7 486.7 853.2 497.5C817.7 508.3 782.3 515.7 746.8 511.2C711.3 506.7 675.7 490.3 640 486.7C604.3 483 568.7 492 533.2 491.2C497.7 490.3 462.3 479.7 426.8 473.3C391.3 467 355.7 465 320 471.3C284.3 477.7 248.7 492.3 213.2 496C177.7 499.7 142.3 492.3 106.8 490.5C71.3 488.7 35.7 492.3 17.8 494.2L0 496Z" fill="#ff7920"></path></svg>