<?xml version="1.0" encoding="UTF-8" standalone="no"?>
<!-- Created with Inkscape (http://www.inkscape.org/) -->

<svg
   version="1.1"
   id="svg2"
   width="1600"
   height="1600"
   viewBox="0 0 1600 1600"
   sodipodi:docname="v793-ning-28.eps"
   xmlns:inkscape="http://www.inkscape.org/namespaces/inkscape"
   xmlns:sodipodi="http://sodipodi.sourceforge.net/DTD/sodipodi-0.dtd"
   xmlns="http://www.w3.org/2000/svg"
   xmlns:svg="http://www.w3.org/2000/svg">
  <defs
     id="defs6">
    <clipPath
       clipPathUnits="userSpaceOnUse"
       id="clipPath16">
      <path
         d="m 0,0 c 1997.34,0 3994.68,0 5992.02,0 2002.66,0 4005.32,0 6007.98,0 0,2000.99 0,4001.97 0,6002.95 0,1999.02 0,3998.05 0,5997.05 -2002.66,0 -4005.32,0 -6007.98,0 -1997.34,0 -3994.68,0 -5992.02,0 C 0,10001 0,8001.97 0,6002.95 0,4001.97 0,2000.99 0,0"
         id="path14" />
    </clipPath>
  </defs>
  <sodipodi:namedview
     id="namedview4"
     pagecolor="#ffffff"
     bordercolor="#000000"
     borderopacity="0.25"
     inkscape:showpageshadow="2"
     inkscape:pageopacity="0.0"
     inkscape:pagecheckerboard="0"
     inkscape:deskcolor="#d1d1d1" />
  <g
     id="g8"
     inkscape:groupmode="layer"
     inkscape:label="ink_ext_XXXXXX"
     transform="matrix(1.3333333,0,0,-1.3333333,0,1600)">
    <g
       id="g10"
       transform="scale(0.1)">
      <g
         id="g12"
         clip-path="url(#clipPath16)">
        <g
           id="g18"
           transform="matrix(10,0,0,-10,-75910,87910)">
          <path
             d="m 7591,8790.9817 c 99.8489,0 199.7162,0 299.5834,0 0,-100.0321 0,-200.0824 0,-300.1328 -99.8672,0 -199.7345,0 -299.5834,0 0,100.0504 0,200.1007 0,300.1328 z"
             style="fill:#f2f2f2;fill-opacity:1;fill-rule:nonzero;stroke:none"
             id="path20" />
          <path
             d="m 7591,8490.8489 c 99.8489,0 199.7162,0 299.5834,0 0,-100.0503 0,-200.1007 0,-300.151 -99.8672,0 -199.7345,0 -299.5834,0 0,100.0503 0,200.1007 0,300.151 z"
             style="fill:#f2f2f2;fill-opacity:1;fill-rule:nonzero;stroke:none"
             id="path22" />
          <path
             d="m 7890.5834,8790.9817 c 99.8673,0 199.7345,0 299.6018,0 0,-100.0321 0,-200.0824 0,-300.1328 -99.8673,0 -199.7345,0 -299.6018,0 0,100.0504 0,200.1007 0,300.1328 z"
             style="fill:#f2f2f2;fill-opacity:1;fill-rule:nonzero;stroke:none"
             id="path24" />
          <path
             d="m 7890.5834,8490.8489 c 99.8673,0 199.7345,0 299.6018,0 0,-100.0503 0,-200.1007 0,-300.151 -99.8673,0 -199.7345,0 -299.6018,0 0,100.0503 0,200.1007 0,300.151 z"
             style="fill:#f8f8f8;fill-opacity:1;fill-rule:nonzero;stroke:none"
             id="path26" />
          <path
             d="m 8190.1852,8790.9817 c 100.1419,0 200.2655,0 300.4074,0 0,-100.0321 0,-200.0824 0,-300.1328 -100.1419,0 -200.2655,0 -300.4074,0 0,100.0504 0,200.1007 0,300.1328 z"
             style="fill:#f2f2f2;fill-opacity:1;fill-rule:nonzero;stroke:none"
             id="path28" />
          <path
             d="m 8190.1852,8490.8489 c 100.1419,0 200.2655,0 300.4074,0 0,-100.0503 0,-200.1007 0,-300.151 -100.1419,0 -200.2655,0 -300.4074,0 0,100.0503 0,200.1007 0,300.151 z"
             style="fill:#fbfbfb;fill-opacity:1;fill-rule:nonzero;stroke:none"
             id="path30" />
          <path
             d="m 8490.5926,8790.9817 c 100.1236,0 200.2655,0 300.3891,0 0,-100.0321 0,-200.0824 0,-300.1328 -100.1236,0 -200.2655,0 -300.3891,0 0,100.0504 0,200.1007 0,300.1328 z"
             style="fill:#f2f2f2;fill-opacity:1;fill-rule:nonzero;stroke:none"
             id="path32" />
          <path
             d="m 8490.5926,8490.8489 c 100.1236,0 200.2655,0 300.3891,0 0,-100.0503 0,-200.1007 0,-300.151 -100.1236,0 -200.2655,0 -300.3891,0 0,100.0503 0,200.1007 0,300.151 z"
             style="fill:#f8f8f8;fill-opacity:1;fill-rule:nonzero;stroke:none"
             id="path34" />
          <path
             d="m 7591,8190.6979 c 99.8489,0 199.7162,0 299.5834,0 0,-99.9588 0,-199.8993 0,-299.8581 -99.8672,0 -199.7345,0 -299.5834,0 0,99.9588 0,199.8993 0,299.8581 z"
             style="fill:#f2f2f2;fill-opacity:1;fill-rule:nonzero;stroke:none"
             id="path36" />
          <path
             d="m 7591,7890.8398 c 99.8489,0 199.7162,0 299.5834,0 0,-99.9405 0,-199.8993 0,-299.8398 -99.8672,0 -199.7345,0 -299.5834,0 0,99.9405 0,199.8993 0,299.8398 z"
             style="fill:#f2f2f2;fill-opacity:1;fill-rule:nonzero;stroke:none"
             id="path38" />
          <path
             d="m 7890.5834,8190.6979 c 99.8673,0 199.7345,0 299.6018,0 0,-99.9588 0,-199.8993 0,-299.8581 -99.8673,0 -199.7345,0 -299.6018,0 0,99.9588 0,199.8993 0,299.8581 z"
             style="fill:#fbfbfb;fill-opacity:1;fill-rule:nonzero;stroke:none"
             id="path40" />
          <path
             d="m 7890.5834,7890.8398 c 99.8673,0 199.7345,0 299.6018,0 0,-99.9405 0,-199.8993 0,-299.8398 -99.8673,0 -199.7345,0 -299.6018,0 0,99.9405 0,199.8993 0,299.8398 z"
             style="fill:#f8f8f8;fill-opacity:1;fill-rule:nonzero;stroke:none"
             id="path42" />
          <path
             d="m 8190.1852,8190.6979 c 100.1419,0 200.2655,0 300.4074,0 0,-99.9588 0,-199.8993 0,-299.8581 -100.1419,0 -200.2655,0 -300.4074,0 0,99.9588 0,199.8993 0,299.8581 z"
             style="fill:#ffffff;fill-opacity:1;fill-rule:nonzero;stroke:none"
             id="path44" />
          <path
             d="m 8190.1852,7890.8398 c 100.1419,0 200.2655,0 300.4074,0 0,-99.9405 0,-199.8993 0,-299.8398 -100.1419,0 -200.2655,0 -300.4074,0 0,99.9405 0,199.8993 0,299.8398 z"
             style="fill:#fbfbfb;fill-opacity:1;fill-rule:nonzero;stroke:none"
             id="path46" />
          <path
             d="m 8490.5926,8190.6979 c 100.1236,0 200.2655,0 300.3891,0 0,-99.9588 0,-199.8993 0,-299.8581 -100.1236,0 -200.2655,0 -300.3891,0 0,99.9588 0,199.8993 0,299.8581 z"
             style="fill:#fbfbfb;fill-opacity:1;fill-rule:nonzero;stroke:none"
             id="path48" />
          <path
             d="m 8490.5926,7890.8398 c 100.1236,0 200.2655,0 300.3891,0 0,-99.9405 0,-199.8993 0,-299.8398 -100.1236,0 -200.2655,0 -300.3891,0 0,99.9405 0,199.8993 0,299.8398 z"
             style="fill:#f8f8f8;fill-opacity:1;fill-rule:nonzero;stroke:none"
             id="path50" />
        </g>
      </g>
      <path
         d="M 9117.7,4200 V 7800 L 6000,9600 2882.31,7800 V 4200 L 6000,2400 Z"
         style="fill:none;stroke:#333333;stroke-width:180;stroke-linecap:round;stroke-linejoin:round;stroke-miterlimit:10;stroke-dasharray:none;stroke-opacity:1"
         id="path52" />
    </g>
  </g>
</svg>
