<svg width="228" height="160" viewBox="0 0 228 160" fill="none" xmlns="http://www.w3.org/2000/svg">
<path d="M193.322 84.3972V70.2348C193.91 64.6289 191.912 49.5224 179.22 33.9438C166.529 18.3652 148.667 12.1101 141.322 10.9299C122.52 10.6349 77.8645 12.4768 49.6611 13.185C36.8246 13.5073 27.7004 21.8571 21.4576 33.9438C13.9843 48.4129 10.6403 67.9182 10 81.1006C10 91.1322 15.8169 117.325 21.4576 128.655C27.0983 139.985 41.4351 147.538 49.6611 149.898C82.565 149.308 150.185 149.898 158.068 149.898C162.475 149.898 171.508 141.932 179.22 128.655C184.876 118.918 188.034 116.435 190.678 101.387L193.322 84.3972ZM193.322 84.3972L218 10.9299M193.322 84.3972L218 149.898" stroke="white" stroke-width="20"/>
</svg>
